<svg xmlns="http://www.w3.org/2000/svg" viewBox="0 0 20 22"><defs><style>.cls-1{fill:#a7a7ab;}</style></defs><title>calendar</title><g id="Слой_2" data-name="Слой 2"><g id="Слой_1-2" data-name="Слой 1"><path class="cls-1" d="M10,18a1,1,0,0,0,.56-.17.94.94,0,0,0,.36-.45A1,1,0,0,0,11,16.8,1,1,0,0,0,10.2,16a1,1,0,0,0-.58.06.94.94,0,0,0-.45.36A1,1,0,0,0,10,18Zm5,0a1,1,0,0,0,.56-.17.94.94,0,0,0,.36-.45A1,1,0,0,0,16,16.8,1,1,0,0,0,15.2,16a1,1,0,0,0-.58.06.94.94,0,0,0-.45.36A1,1,0,0,0,15,18Zm0-4a1,1,0,0,0,.56-.17.94.94,0,0,0,.36-.45A1,1,0,0,0,16,12.8,1,1,0,0,0,15.2,12a1,1,0,0,0-.58.06.94.94,0,0,0-.45.36A1,1,0,0,0,15,14Zm-5,0a1,1,0,0,0,.56-.17.94.94,0,0,0,.36-.45A1,1,0,0,0,11,12.8,1,1,0,0,0,10.2,12a1,1,0,0,0-.58.06.94.94,0,0,0-.45.36A1,1,0,0,0,10,14ZM17,2H16V1a1,1,0,0,0-.29-.71,1,1,0,0,0-1.42,0A1,1,0,0,0,14,1V2H6V1A1,1,0,0,0,5.71.29a1,1,0,0,0-1.42,0A1,1,0,0,0,4,1V2H3A3,3,0,0,0,0,5V19a3,3,0,0,0,3,3H17a3,3,0,0,0,3-3V5a3,3,0,0,0-3-3Zm1,17a1,1,0,0,1-1,1H3a1,1,0,0,1-1-1V10H18ZM18,8H2V5A1,1,0,0,1,3,4H4V5a1,1,0,0,0,1.71.71A1,1,0,0,0,6,5V4h8V5a1,1,0,1,0,2,0V4h1a1,1,0,0,1,1,1ZM5,14a1,1,0,0,0,.56-.17.94.94,0,0,0,.36-.45A1,1,0,0,0,6,12.8,1,1,0,0,0,5.2,12a1,1,0,0,0-.58.06.94.94,0,0,0-.45.36A1,1,0,0,0,5,14Zm0,4a1,1,0,0,0,.56-.17.94.94,0,0,0,.36-.45A1,1,0,0,0,6,16.8,1,1,0,0,0,5.2,16a1,1,0,0,0-.58.06.94.94,0,0,0-.45.36A1,1,0,0,0,5,18Z"/></g></g></svg>