<svg xmlns="http://www.w3.org/2000/svg" viewBox="0 0 24 24"><defs><style>.cls-1{fill:#76767a;}</style></defs><title>debt</title><g id="Слой_2" data-name="Слой 2"><g id="Слой_1-2" data-name="Слой 1"><path class="cls-1" d="M20.17,5.63h2.38V4.22H14A2.08,2.08,0,0,0,12.7,2.94V1.41h1.41V0H9.89V1.41H11.3V2.94A2.08,2.08,0,0,0,10,4.22H1.45V5.63H3.83L0,13.19v.17a3.56,3.56,0,0,0,3.56,3.52H6.38a3.52,3.52,0,0,0,3.51-3.52v-.17L6.11,5.63H10A2.09,2.09,0,0,0,11.3,6.9V21.19H7.08V24h9.84V21.19H12.7V6.9A2.09,2.09,0,0,0,14,5.63h3.91l-3.78,7.56v.17a3.53,3.53,0,0,0,3.52,3.52h2.81A3.56,3.56,0,0,0,24,13.36v-.17Zm-18.33,7L4.27,7.9v4.76Zm3.83,0V7.9l2.38,4.76Zm10.28,0L18.33,7.9v4.76Zm3.78,0V7.9l2.43,4.76Z"/></g></g></svg>