<svg xmlns="http://www.w3.org/2000/svg" viewBox="0 0 22 18"><defs><style>.cls-1{fill:#76767a;}</style></defs><title>email</title><g id="Слой_2" data-name="Слой 2"><g id="Слой_1-2" data-name="Слой 1"><path class="cls-1" d="M19,18H3a3,3,0,0,1-3-3V3A3,3,0,0,1,3,0H19a3,3,0,0,1,3,3V15A3,3,0,0,1,19,18ZM3,2A1,1,0,0,0,2,3V15a1,1,0,0,0,1,1H19a1,1,0,0,0,1-1V3a1,1,0,0,0-1-1Z"/><path class="cls-1" d="M11,11a1,1,0,0,1-.57-.18l-10-7A1,1,0,0,1,.18,2.43a1,1,0,0,1,1.39-.25L11,8.78l9.43-6.6a1,1,0,1,1,1.14,1.64l-10,7A1,1,0,0,1,11,11Z"/></g></g></svg>