<svg xmlns="http://www.w3.org/2000/svg" viewBox="0 0 72 60"><defs><style>.cls-1{fill:#76767a;}</style></defs><title>feedback</title><g id="Слой_2" data-name="Слой 2"><g id="Слой_1-2" data-name="Слой 1"><path class="cls-1" d="M51,54H15a9,9,0,0,1-9-9V21a3,3,0,0,0-6,0V45A15,15,0,0,0,15,60H51a3,3,0,0,0,0-6ZM63,0H21a9,9,0,0,0-9,9V39a9,9,0,0,0,9,9H63a9,9,0,0,0,9-9V9a9,9,0,0,0-9-9ZM61.77,6,44.13,23.64a3.13,3.13,0,0,1-1,.66,3,3,0,0,1-2.3,0,3.13,3.13,0,0,1-1-.66L22.23,6ZM66,39a3,3,0,0,1-3,3H21a3,3,0,0,1-3-3V10.11L35.64,27.75a9,9,0,0,0,12.72,0L66,10.11Z"/></g></g></svg>