<svg xmlns="http://www.w3.org/2000/svg" viewBox="0 0 18 22"><defs><style>.cls-1{fill:#76767a;}</style></defs><title>file</title><g id="Слой_2" data-name="Слой 2"><g id="Слой_1-2" data-name="Слой 1"><path class="cls-1" d="M15,22H3a3,3,0,0,1-3-3V3A3,3,0,0,1,3,0h7a1,1,0,0,1,.71.29l7,7A1,1,0,0,1,18,8V19a3,3,0,0,1-3,3ZM3,2a1.05,1.05,0,0,0-.71.29A1.05,1.05,0,0,0,2,3V19a1.05,1.05,0,0,0,.29.71A1.05,1.05,0,0,0,3,20H15a1,1,0,0,0,1-1V8.41L9.59,2Z"/><path class="cls-1" d="M17,9H10A1,1,0,0,1,9,8V1a1,1,0,0,1,2,0V7h6a1,1,0,0,1,0,2Z"/><path class="cls-1" d="M11,18a1,1,0,0,1-.71-.29l-5-5a1,1,0,0,1,1.42-1.42l5,5a1,1,0,0,1,0,1.42A1,1,0,0,1,11,18Z"/><path class="cls-1" d="M6,18a1,1,0,0,1-.71-.29,1,1,0,0,1,0-1.42l5-5a1,1,0,0,1,1.42,1.42l-5,5A1,1,0,0,1,6,18Z"/></g></g></svg>