<svg xmlns="http://www.w3.org/2000/svg" viewBox="0 0 16 19.99"><defs><style>.cls-1{fill:#76767a;}</style></defs><title>guarentee</title><g id="Слой_2" data-name="Слой 2"><g id="Слой_1-2" data-name="Слой 1"><path class="cls-1" d="M15.63,1.65a1,1,0,0,0-.4-.2,1.09,1.09,0,0,0-.44,0,8,8,0,0,1-3.24,0,8.15,8.15,0,0,1-3-1.28,1,1,0,0,0-1.14,0,8.15,8.15,0,0,1-3,1.28,8,8,0,0,1-3.24,0,1.09,1.09,0,0,0-.44,0,1,1,0,0,0-.4.2A.85.85,0,0,0,.1,2a.91.91,0,0,0-.1.43V9.88A9,9,0,0,0,1,14a8.84,8.84,0,0,0,2.77,3.21l3.65,2.6a1,1,0,0,0,1.16,0l3.65-2.6A8.84,8.84,0,0,0,15,14a9,9,0,0,0,1-4.12V2.43A.91.91,0,0,0,15.9,2,.85.85,0,0,0,15.63,1.65ZM14,9.88a7,7,0,0,1-2.93,5.7L8,17.77,4.93,15.58A7,7,0,0,1,2,9.88V3.58A10,10,0,0,0,8,2.19a10,10,0,0,0,6,1.39ZM9.54,7.59l-2.69,2.7L6,9.39a1,1,0,0,0-1.42,1.42l1.6,1.6a1,1,0,0,0,.33.22,1.07,1.07,0,0,0,.76,0,1,1,0,0,0,.33-.22L11,9a1,1,0,0,0,.29-.71,1,1,0,0,0-1.71-.71Z"/></g></g></svg>