<svg xmlns="http://www.w3.org/2000/svg" viewBox="0 0 89.18 80.27"><defs><style>.cls-1{fill:#76767a;opacity:0.16;isolation:isolate;}</style></defs><title>message</title><g id="Слой_2" data-name="Слой 2"><g id="Слой_1-2" data-name="Слой 1"><path class="cls-1" d="M63.71,25.48a4.61,4.61,0,0,0,1.45,1,4.5,4.5,0,0,0,3.43,0,4.61,4.61,0,0,0,1.45-1L87.87,7.64a4.48,4.48,0,0,0-6.33-6.33L66.87,16l-5.75-5.79a4.3,4.3,0,0,0-1.45-1A4.35,4.35,0,0,0,58,8.92a4.48,4.48,0,0,0-3.17,1.31,4.46,4.46,0,0,0-1.31,3.16,4.48,4.48,0,0,0,1.31,3.17Zm21-3.17a4.47,4.47,0,0,0-4.46,4.46V66.89a4.46,4.46,0,0,1-4.46,4.46H13.37a4.44,4.44,0,0,1-4.45-4.46V24.14L35.13,50.4a13.41,13.41,0,0,0,9.41,3.88,13.72,13.72,0,0,0,9.63-4l7.67-7.66a4.48,4.48,0,1,0-6.33-6.34L47.7,44.07a4.47,4.47,0,0,1-6.24,0L15.2,17.85H40.12a4.46,4.46,0,1,0,0-8.92H13.37A13.38,13.38,0,0,0,0,22.31V66.89A13.38,13.38,0,0,0,13.37,80.27H75.79A13.38,13.38,0,0,0,89.17,66.89V26.77a4.47,4.47,0,0,0-4.46-4.46Z"/></g></g></svg>