<svg xmlns="http://www.w3.org/2000/svg" viewBox="0 0 17.81 20"><defs><style>.cls-1{fill:#76767a;}</style></defs><title>question-file</title><g id="Слой_2" data-name="Слой 2"><g id="Слой_1-2" data-name="Слой 1"><path class="cls-1" d="M10,10H5a1,1,0,1,0,0,2h5a1,1,0,1,0,0-2Zm1,8H3a1,1,0,0,1-1-1V3A1,1,0,0,1,3,2H8V5a3,3,0,0,0,3,3h3V9a1,1,0,1,0,2,0V6.94a.9.9,0,0,0-.07-.27V6.58a1.07,1.07,0,0,0-.19-.28l-6-6A1,1,0,0,0,9.4.11H9.32A.94.94,0,0,0,9,0H3A3,3,0,0,0,0,3V17a3,3,0,0,0,3,3h8a1,1,0,1,0,0-2ZM10,3.41,12.53,6H11a1,1,0,0,1-1-1Zm5.57,14.88-.15-.12A1.14,1.14,0,0,0,15,18a1.11,1.11,0,0,0-.48,0,1,1,0,0,0-.42.25,1,1,0,0,0-.22.33.94.94,0,0,0,0,.76,1,1,0,0,0,.22.33,1,1,0,0,0,.7.29,1,1,0,0,0,.47-.12.86.86,0,0,0,.36-.32,1,1,0,0,0,.17-.46,1,1,0,0,0-.07-.48A1.19,1.19,0,0,0,15.52,18.29ZM10,14H5a1,1,0,1,0,0,2h5a1,1,0,1,0,0-2Zm4.86-3a3,3,0,0,0-1.5.4,2.91,2.91,0,0,0-1.1,1.1,1,1,0,0,0-.13.37,1.29,1.29,0,0,0,0,.39.9.9,0,0,0,.18.35,1,1,0,0,0,.29.26A1,1,0,0,0,13,14a1.29,1.29,0,0,0,.39,0,.9.9,0,0,0,.35-.18A1,1,0,0,0,14,13.5a1,1,0,0,1,.37-.37,1.06,1.06,0,0,1,.5-.13,1,1,0,0,1,.5.14.89.89,0,0,1,.36.36,1,1,0,0,1,.14.5,1,1,0,0,1-.14.5,1,1,0,0,1-.37.37,1,1,0,0,1-.5.13,1,1,0,1,0,0,2,3,3,0,0,0,0-6ZM5,8H6A1,1,0,1,0,6,6H5A1,1,0,1,0,5,8Z"/></g></g></svg>