<svg xmlns="http://www.w3.org/2000/svg" viewBox="0 0 22.58 23"><defs><style>.cls-1{fill:#76767a;}</style></defs><title>ruble</title><g id="Слой_2" data-name="Слой 2"><g id="Слой_1-2" data-name="Слой 1"><path class="cls-1" d="M11.29,6a3,3,0,1,1,3-3A3,3,0,0,1,11.29,6Zm0-4a1,1,0,1,0,1,1A1,1,0,0,0,11.29,2Z"/><path class="cls-1" d="M20.91,23H1.74L0,19.47,3.67,4.68h15l3.91,14.74ZM3,21H19.64l.82-1.77L17.14,6.68H5.23L2.12,19.24Z"/><path class="cls-1" d="M8.5,17h-1V15.89h1v-.64h-1V13.89h1V10.3h2.75a3.8,3.8,0,0,1,1.23.18,2.31,2.31,0,0,1,.9.5,1.78,1.78,0,0,1,.54.78,2.53,2.53,0,0,1,.19,1,2.63,2.63,0,0,1-.19,1,1.9,1.9,0,0,1-.54.78,2.43,2.43,0,0,1-.9.49,3.8,3.8,0,0,1-1.23.18h-1.1v.64h2.42V17H10.15v1H8.5Zm2.59-3.14a1.54,1.54,0,0,0,1-.29,1.06,1.06,0,0,0,.33-.83,1,1,0,0,0-.31-.81,1.49,1.49,0,0,0-1.06-.3h-.94v2.23Z"/></g></g></svg>