<svg xmlns="http://www.w3.org/2000/svg" viewBox="0 0 24 20"><defs><style>.cls-1{fill:#76767a;}</style></defs><title>user</title><g id="Слой_2" data-name="Слой 2"><g id="Слой_1-2" data-name="Слой 1"><path class="cls-1" d="M16,20a1,1,0,0,1-1-1V17a3,3,0,0,0-3-3H5a3,3,0,0,0-2.12.88A3,3,0,0,0,2,17v2a1,1,0,0,1-2,0V17a5,5,0,0,1,5-5h7a5,5,0,0,1,5,5v2A1,1,0,0,1,16,20Z"/><path class="cls-1" d="M23,12a1,1,0,0,1-.71-.29l-5-5a1,1,0,0,1,1.42-1.42l5,5a1,1,0,0,1,0,1.42A1,1,0,0,1,23,12Z"/><path class="cls-1" d="M18,12a1,1,0,0,1-.71-.29,1,1,0,0,1,0-1.42l5-5a1,1,0,1,1,1.42,1.42l-5,5A1,1,0,0,1,18,12Z"/><path class="cls-1" d="M8.5,10a5,5,0,1,1,5-5A5,5,0,0,1,8.5,10Zm0-8a3,3,0,1,0,3,3A3,3,0,0,0,8.5,2Z"/></g></g></svg>