<svg xmlns="http://www.w3.org/2000/svg" viewBox="0 0 20 17"><defs><style>.cls-1{fill:#76767a;}</style></defs><title>user-check</title><g id="Слой_2" data-name="Слой 2"><g id="Слой_1-2" data-name="Слой 1"><path class="cls-1" d="M11.3,8.72A4.94,4.94,0,0,0,13,5,5,5,0,1,0,3,5,4.94,4.94,0,0,0,4.7,8.72,8,8,0,0,0,0,16a1,1,0,0,0,.29.71A1,1,0,0,0,1,17a1,1,0,0,0,.71-.29A1,1,0,0,0,2,16a6,6,0,0,1,12,0,1,1,0,1,0,2,0,8,8,0,0,0-4.7-7.28ZM8,8a3,3,0,0,1-1.67-.51,3,3,0,0,1-1.1-1.34,3,3,0,0,1,.65-3.27,3,3,0,0,1,3.27-.65,3,3,0,0,1,1.34,1.1A3,3,0,0,1,11,5,3,3,0,0,1,8,8ZM19.71,5.63a1,1,0,0,0-.33-.22.94.94,0,0,0-.76,0,1,1,0,0,0-.33.22l-2,2L15.67,7a1,1,0,0,0-.33-.22.94.94,0,0,0-.76,0,1,1,0,0,0-.33.22,1,1,0,0,0,0,1.41l1.34,1.34a1,1,0,0,0,1.41,0l2.67-2.67a1.08,1.08,0,0,0,.24-.32.93.93,0,0,0,.09-.4A.87.87,0,0,0,19.93,6a1,1,0,0,0-.22-.34Z"/></g></g></svg>