<svg xmlns="http://www.w3.org/2000/svg" viewBox="0 0 21.97 17"><defs><style>.cls-1{fill:#76767a;}</style></defs><title>users</title><g id="Слой_2" data-name="Слой 2"><g id="Слой_1-2" data-name="Слой 1"><path class="cls-1" d="M11.3,8.72A4.94,4.94,0,0,0,13,5,5,5,0,1,0,3,5,4.94,4.94,0,0,0,4.7,8.72,8,8,0,0,0,0,16a1,1,0,0,0,.29.71A1,1,0,0,0,1,17a1,1,0,0,0,.71-.29A1,1,0,0,0,2,16a6,6,0,0,1,12,0,1,1,0,1,0,2,0,8,8,0,0,0-4.7-7.28ZM8,8a3,3,0,0,1-1.67-.51,3,3,0,0,1-1.1-1.34,3,3,0,0,1,.65-3.27,3,3,0,0,1,3.27-.65,3,3,0,0,1,1.34,1.1A3,3,0,0,1,11,5,3,3,0,0,1,8,8Zm9.74.32A5,5,0,0,0,18.56,3,4.93,4.93,0,0,0,16.72.8,5.05,5.05,0,0,0,14,0a1,1,0,0,0-.71.29A1,1,0,0,0,13,1a1,1,0,0,0,.29.71A1,1,0,0,0,14,2a3,3,0,0,1,3,3,3,3,0,0,1-.4,1.5,3.1,3.1,0,0,1-1.1,1.09,1.1,1.1,0,0,0-.36.35,1,1,0,0,0-.14.49,1,1,0,0,0,.11.49,1,1,0,0,0,.34.37l.39.26.13.07A7,7,0,0,1,20,16a1,1,0,1,0,2,0,9,9,0,0,0-4.23-7.68Z"/></g></g></svg>