<?xml version="1.0" encoding="UTF-8"?><!DOCTYPE svg PUBLIC "-//W3C//DTD SVG 1.1//EN" "http://www.w3.org/Graphics/SVG/1.1/DTD/svg11.dtd"><svg xmlns="http://www.w3.org/2000/svg" xmlns:xlink="http://www.w3.org/1999/xlink"><defs><style>.cls-1{fill:#76767a}</style><style>.cls-1{fill:#76767a}</style><style>.cls-1{fill:#76767a}</style></defs><symbol id="arrow-down" viewBox="0 0 17.38 9.74"><g><path d="M8.69 9.74L0 1.45 1.38 0l7.31 6.98L16 0l1.38 1.45-8.69 8.29z"/></g></symbol><symbol id="calendar" viewBox="0 0 20 22"><g><path d="M10 18a1 1 0 00.56-.17.94.94 0 00.36-.45 1 1 0 00.08-.58 1 1 0 00-.8-.8 1 1 0 00-.58.06.94.94 0 00-.45.36A1 1 0 0010 18zm5 0a1 1 0 00.56-.17.94.94 0 00.36-.45 1 1 0 00.08-.58 1 1 0 00-.8-.8 1 1 0 00-.58.06.94.94 0 00-.45.36A1 1 0 0015 18zm0-4a1 1 0 00.56-.17.94.94 0 00.36-.45 1 1 0 00.08-.58 1 1 0 00-.8-.8 1 1 0 00-.58.06.94.94 0 00-.45.36A1 1 0 0015 14zm-5 0a1 1 0 00.56-.17.94.94 0 00.36-.45 1 1 0 00.08-.58 1 1 0 00-.8-.8 1 1 0 00-.58.06.94.94 0 00-.45.36A1 1 0 0010 14zm7-12h-1V1a1 1 0 00-.29-.71 1 1 0 00-1.42 0A1 1 0 0014 1v1H6V1a1 1 0 00-.29-.71 1 1 0 00-1.42 0A1 1 0 004 1v1H3a3 3 0 00-3 3v14a3 3 0 003 3h14a3 3 0 003-3V5a3 3 0 00-3-3zm1 17a1 1 0 01-1 1H3a1 1 0 01-1-1v-9h16zm0-11H2V5a1 1 0 011-1h1v1a1 1 0 001.71.71A1 1 0 006 5V4h8v1a1 1 0 102 0V4h1a1 1 0 011 1zM5 14a1 1 0 00.56-.17.94.94 0 00.36-.45A1 1 0 006 12.8a1 1 0 00-.8-.8 1 1 0 00-.58.06.94.94 0 00-.45.36A1 1 0 005 14zm0 4a1 1 0 00.56-.17.94.94 0 00.36-.45A1 1 0 006 16.8a1 1 0 00-.8-.8 1 1 0 00-.58.06.94.94 0 00-.45.36A1 1 0 005 18z"/></g></symbol><symbol id="check" viewBox="0 0 10.26 8.11"><g><path d="M3.43 8.12L0 3.64l.79-.61L3.5 6.56 9.53 0l.74.68-6.84 7.44z"/></g></symbol><symbol id="debt" viewBox="0 0 24 24"><g><path d="M20.17 5.63h2.38V4.22H14a2.08 2.08 0 00-1.3-1.28V1.41h1.41V0H9.89v1.41h1.41v1.53A2.08 2.08 0 0010 4.22H1.45v1.41h2.38L0 13.19v.17a3.56 3.56 0 003.56 3.52h2.82a3.52 3.52 0 003.51-3.52v-.17L6.11 5.63H10a2.09 2.09 0 001.3 1.27v14.29H7.08V24h9.84v-2.81H12.7V6.9A2.09 2.09 0 0014 5.63h3.91l-3.78 7.56v.17a3.53 3.53 0 003.52 3.52h2.81A3.56 3.56 0 0024 13.36v-.17zm-18.33 7L4.27 7.9v4.76zm3.83 0V7.9l2.38 4.76zm10.28 0l2.38-4.73v4.76zm3.78 0V7.9l2.43 4.76z"/></g></symbol><symbol id="file" viewBox="0 0 18 22"><g id="&#x421;&#x43B;&#x43E;&#x439;_2"><g id="&#x421;&#x43B;&#x43E;&#x439;_1-2"><path class="cls-1" d="M15 22H3a3 3 0 01-3-3V3a3 3 0 013-3h7a1 1 0 01.71.29l7 7A1 1 0 0118 8v11a3 3 0 01-3 3zM3 2a1.05 1.05 0 00-.71.29A1.05 1.05 0 002 3v16a1.05 1.05 0 00.29.71A1.05 1.05 0 003 20h12a1 1 0 001-1V8.41L9.59 2z"/><path class="cls-1" d="M17 9h-7a1 1 0 01-1-1V1a1 1 0 012 0v6h6a1 1 0 010 2zM11 18a1 1 0 01-.71-.29l-5-5a1 1 0 011.42-1.42l5 5a1 1 0 010 1.42A1 1 0 0111 18z"/><path class="cls-1" d="M6 18a1 1 0 01-.71-.29 1 1 0 010-1.42l5-5a1 1 0 011.42 1.42l-5 5A1 1 0 016 18z"/></g></g></symbol><symbol id="oval-arrow" viewBox="0 0 8 14"><g><path d="M7 14a1 1 0 01-.71-.29l-6-6a1 1 0 010-1.42l6-6a1 1 0 011.42 1.42L2.41 7l5.3 5.29a1 1 0 010 1.42A1 1 0 017 14z"/></g></symbol><symbol id="ruble" viewBox="0 0 22.58 23"><g id="&#x421;&#x43B;&#x43E;&#x439;_2"><g id="&#x421;&#x43B;&#x43E;&#x439;_1-2"><path class="cls-1" d="M11.29 6a3 3 0 113-3 3 3 0 01-3 3zm0-4a1 1 0 101 1 1 1 0 00-1-1z"/><path class="cls-1" d="M20.91 23H1.74L0 19.47 3.67 4.68h15l3.91 14.74zM3 21h16.64l.82-1.77-3.32-12.55H5.23L2.12 19.24z"/><path class="cls-1" d="M8.5 17h-1v-1.11h1v-.64h-1v-1.36h1V10.3h2.75a3.8 3.8 0 011.23.18 2.31 2.31 0 01.9.5 1.78 1.78 0 01.54.78 2.53 2.53 0 01.19 1 2.63 2.63 0 01-.19 1 1.9 1.9 0 01-.54.78 2.43 2.43 0 01-.9.49 3.8 3.8 0 01-1.23.18h-1.1v.64h2.42V17h-2.42v1H8.5zm2.59-3.14a1.54 1.54 0 001-.29 1.06 1.06 0 00.33-.83 1 1 0 00-.31-.81 1.49 1.49 0 00-1.06-.3h-.94v2.23z"/></g></g></symbol><symbol id="user" viewBox="0 0 24 20"><g id="&#x421;&#x43B;&#x43E;&#x439;_2"><g id="&#x421;&#x43B;&#x43E;&#x439;_1-2"><path class="cls-1" d="M16 20a1 1 0 01-1-1v-2a3 3 0 00-3-3H5a3 3 0 00-2.12.88A3 3 0 002 17v2a1 1 0 01-2 0v-2a5 5 0 015-5h7a5 5 0 015 5v2a1 1 0 01-1 1zM23 12a1 1 0 01-.71-.29l-5-5a1 1 0 011.42-1.42l5 5a1 1 0 010 1.42A1 1 0 0123 12z"/><path class="cls-1" d="M18 12a1 1 0 01-.71-.29 1 1 0 010-1.42l5-5a1 1 0 111.42 1.42l-5 5A1 1 0 0118 12zM8.5 10a5 5 0 115-5 5 5 0 01-5 5zm0-8a3 3 0 103 3 3 3 0 00-3-3z"/></g></g></symbol></svg>