<?xml version="1.0" encoding="UTF-8"?><!DOCTYPE svg PUBLIC "-//W3C//DTD SVG 1.1//EN" "http://www.w3.org/Graphics/SVG/1.1/DTD/svg11.dtd"><svg xmlns="http://www.w3.org/2000/svg" xmlns:xlink="http://www.w3.org/1999/xlink"><defs><style>.cls-1{fill:#76767a}</style><style>.cls-1{fill:#76767a}</style><style>.cls-1{fill:#76767a}</style><style>.cls-1{fill:#76767a}</style></defs><symbol id="arrow-down" viewBox="0 0 17.38 9.74"><g><path d="M8.69 9.74L0 1.45 1.38 0l7.31 6.98L16 0l1.38 1.45-8.69 8.29z"/></g></symbol><symbol id="calendar" viewBox="0 0 20 22"><g><path d="M10 18a1 1 0 00.56-.17.94.94 0 00.36-.45 1 1 0 00.08-.58 1 1 0 00-.8-.8 1 1 0 00-.58.06.94.94 0 00-.45.36A1 1 0 0010 18zm5 0a1 1 0 00.56-.17.94.94 0 00.36-.45 1 1 0 00.08-.58 1 1 0 00-.8-.8 1 1 0 00-.58.06.94.94 0 00-.45.36A1 1 0 0015 18zm0-4a1 1 0 00.56-.17.94.94 0 00.36-.45 1 1 0 00.08-.58 1 1 0 00-.8-.8 1 1 0 00-.58.06.94.94 0 00-.45.36A1 1 0 0015 14zm-5 0a1 1 0 00.56-.17.94.94 0 00.36-.45 1 1 0 00.08-.58 1 1 0 00-.8-.8 1 1 0 00-.58.06.94.94 0 00-.45.36A1 1 0 0010 14zm7-12h-1V1a1 1 0 00-.29-.71 1 1 0 00-1.42 0A1 1 0 0014 1v1H6V1a1 1 0 00-.29-.71 1 1 0 00-1.42 0A1 1 0 004 1v1H3a3 3 0 00-3 3v14a3 3 0 003 3h14a3 3 0 003-3V5a3 3 0 00-3-3zm1 17a1 1 0 01-1 1H3a1 1 0 01-1-1v-9h16zm0-11H2V5a1 1 0 011-1h1v1a1 1 0 001.71.71A1 1 0 006 5V4h8v1a1 1 0 102 0V4h1a1 1 0 011 1zM5 14a1 1 0 00.56-.17.94.94 0 00.36-.45A1 1 0 006 12.8a1 1 0 00-.8-.8 1 1 0 00-.58.06.94.94 0 00-.45.36A1 1 0 005 14zm0 4a1 1 0 00.56-.17.94.94 0 00.36-.45A1 1 0 006 16.8a1 1 0 00-.8-.8 1 1 0 00-.58.06.94.94 0 00-.45.36A1 1 0 005 18z"/></g></symbol><symbol id="check" viewBox="0 0 10.26 8.11"><g><path d="M3.43 8.12L0 3.64l.79-.61L3.5 6.56 9.53 0l.74.68-6.84 7.44z"/></g></symbol><symbol id="debt" viewBox="0 0 24 24"><g><path d="M20.17 5.63h2.38V4.22H14a2.08 2.08 0 00-1.3-1.28V1.41h1.41V0H9.89v1.41h1.41v1.53A2.08 2.08 0 0010 4.22H1.45v1.41h2.38L0 13.19v.17a3.56 3.56 0 003.56 3.52h2.82a3.52 3.52 0 003.51-3.52v-.17L6.11 5.63H10a2.09 2.09 0 001.3 1.27v14.29H7.08V24h9.84v-2.81H12.7V6.9A2.09 2.09 0 0014 5.63h3.91l-3.78 7.56v.17a3.53 3.53 0 003.52 3.52h2.81A3.56 3.56 0 0024 13.36v-.17zm-18.33 7L4.27 7.9v4.76zm3.83 0V7.9l2.38 4.76zm10.28 0l2.38-4.73v4.76zm3.78 0V7.9l2.43 4.76z"/></g></symbol><symbol id="email" viewBox="0 0 22 18"><g id="&#x421;&#x43B;&#x43E;&#x439;_2"><g id="&#x421;&#x43B;&#x43E;&#x439;_1-2"><path class="cls-1" d="M19 18H3a3 3 0 01-3-3V3a3 3 0 013-3h16a3 3 0 013 3v12a3 3 0 01-3 3zM3 2a1 1 0 00-1 1v12a1 1 0 001 1h16a1 1 0 001-1V3a1 1 0 00-1-1z"/><path class="cls-1" d="M11 11a1 1 0 01-.57-.18l-10-7a1 1 0 01-.25-1.39 1 1 0 011.39-.25L11 8.78l9.43-6.6a1 1 0 111.14 1.64l-10 7A1 1 0 0111 11z"/></g></g></symbol><symbol id="feedback" viewBox="0 0 72 60"><g><path d="M51 54H15a9 9 0 01-9-9V21a3 3 0 00-6 0v24a15 15 0 0015 15h36a3 3 0 000-6zM63 0H21a9 9 0 00-9 9v30a9 9 0 009 9h42a9 9 0 009-9V9a9 9 0 00-9-9zm-1.23 6L44.13 23.64a3.13 3.13 0 01-1 .66 3 3 0 01-2.3 0 3.13 3.13 0 01-1-.66L22.23 6zM66 39a3 3 0 01-3 3H21a3 3 0 01-3-3V10.11l17.64 17.64a9 9 0 0012.72 0L66 10.11z"/></g></symbol><symbol id="file" viewBox="0 0 18 22"><g id="&#x421;&#x43B;&#x43E;&#x439;_2"><g id="&#x421;&#x43B;&#x43E;&#x439;_1-2"><path class="cls-1" d="M15 22H3a3 3 0 01-3-3V3a3 3 0 013-3h7a1 1 0 01.71.29l7 7A1 1 0 0118 8v11a3 3 0 01-3 3zM3 2a1.05 1.05 0 00-.71.29A1.05 1.05 0 002 3v16a1.05 1.05 0 00.29.71A1.05 1.05 0 003 20h12a1 1 0 001-1V8.41L9.59 2z"/><path class="cls-1" d="M17 9h-7a1 1 0 01-1-1V1a1 1 0 012 0v6h6a1 1 0 010 2zM11 18a1 1 0 01-.71-.29l-5-5a1 1 0 011.42-1.42l5 5a1 1 0 010 1.42A1 1 0 0111 18z"/><path class="cls-1" d="M6 18a1 1 0 01-.71-.29 1 1 0 010-1.42l5-5a1 1 0 011.42 1.42l-5 5A1 1 0 016 18z"/></g></g></symbol><symbol id="guarentee" viewBox="0 0 16 19.99"><g><path d="M15.63 1.65a1 1 0 00-.4-.2 1.09 1.09 0 00-.44 0 8 8 0 01-3.24 0 8.15 8.15 0 01-3-1.28 1 1 0 00-1.14 0 8.15 8.15 0 01-3 1.28 8 8 0 01-3.24 0 1.09 1.09 0 00-.44 0 1 1 0 00-.4.2A.85.85 0 00.1 2a.91.91 0 00-.1.43v7.45A9 9 0 001 14a8.84 8.84 0 002.77 3.21l3.65 2.6a1 1 0 001.16 0l3.65-2.6A8.84 8.84 0 0015 14a9 9 0 001-4.12V2.43a.91.91 0 00-.1-.43.85.85 0 00-.27-.35zM14 9.88a7 7 0 01-2.93 5.7L8 17.77l-3.07-2.19A7 7 0 012 9.88v-6.3a10 10 0 006-1.39 10 10 0 006 1.39zM9.54 7.59l-2.69 2.7-.85-.9a1 1 0 00-1.42 1.42l1.6 1.6a1 1 0 00.33.22 1.07 1.07 0 00.76 0 1 1 0 00.33-.22L11 9a1 1 0 00.29-.71 1 1 0 00-1.71-.71z"/></g></symbol><symbol id="message" viewBox="0 0 89.18 80.27"><g><path d="M63.71 25.48a4.61 4.61 0 001.45 1 4.5 4.5 0 003.43 0 4.61 4.61 0 001.45-1L87.87 7.64a4.48 4.48 0 00-6.33-6.33L66.87 16l-5.75-5.79a4.3 4.3 0 00-1.45-1A4.35 4.35 0 0058 8.92a4.48 4.48 0 00-3.17 1.31 4.46 4.46 0 00-1.31 3.16 4.48 4.48 0 001.31 3.17zm21-3.17a4.47 4.47 0 00-4.46 4.46v40.12a4.46 4.46 0 01-4.46 4.46H13.37a4.44 4.44 0 01-4.45-4.46V24.14L35.13 50.4a13.41 13.41 0 009.41 3.88 13.72 13.72 0 009.63-4l7.67-7.66a4.48 4.48 0 10-6.33-6.34l-7.81 7.79a4.47 4.47 0 01-6.24 0L15.2 17.85h24.92a4.46 4.46 0 100-8.92H13.37A13.38 13.38 0 000 22.31v44.58a13.38 13.38 0 0013.37 13.38h62.42a13.38 13.38 0 0013.38-13.38V26.77a4.47 4.47 0 00-4.46-4.46z" opacity=".16"/></g></symbol><symbol id="oval-arrow" viewBox="0 0 8 14"><g><path d="M7 14a1 1 0 01-.71-.29l-6-6a1 1 0 010-1.42l6-6a1 1 0 011.42 1.42L2.41 7l5.3 5.29a1 1 0 010 1.42A1 1 0 017 14z"/></g></symbol><symbol id="question-file" viewBox="0 0 17.81 20"><g><path d="M10 10H5a1 1 0 100 2h5a1 1 0 100-2zm1 8H3a1 1 0 01-1-1V3a1 1 0 011-1h5v3a3 3 0 003 3h3v1a1 1 0 102 0V6.94a.9.9 0 00-.07-.27v-.09a1.07 1.07 0 00-.19-.28l-6-6A1 1 0 009.4.11h-.08A.94.94 0 009 0H3a3 3 0 00-3 3v14a3 3 0 003 3h8a1 1 0 100-2zM10 3.41L12.53 6H11a1 1 0 01-1-1zm5.57 14.88l-.15-.12A1.14 1.14 0 0015 18a1.11 1.11 0 00-.48 0 1 1 0 00-.42.25 1 1 0 00-.22.33.94.94 0 000 .76 1 1 0 00.22.33 1 1 0 00.7.29 1 1 0 00.47-.12.86.86 0 00.36-.32 1 1 0 00.17-.46 1 1 0 00-.07-.48 1.19 1.19 0 00-.21-.29zM10 14H5a1 1 0 100 2h5a1 1 0 100-2zm4.86-3a3 3 0 00-1.5.4 2.91 2.91 0 00-1.1 1.1 1 1 0 00-.13.37 1.29 1.29 0 000 .39.9.9 0 00.18.35 1 1 0 00.29.26 1 1 0 00.4.13 1.29 1.29 0 00.39 0 .9.9 0 00.35-.18 1 1 0 00.26-.32 1 1 0 01.37-.37 1.06 1.06 0 01.5-.13 1 1 0 01.5.14.89.89 0 01.36.36 1 1 0 01.14.5 1 1 0 01-.14.5 1 1 0 01-.37.37 1 1 0 01-.5.13 1 1 0 100 2 3 3 0 000-6zM5 8h1a1 1 0 100-2H5a1 1 0 100 2z"/></g></symbol><symbol id="ruble" viewBox="0 0 22.58 23"><g id="&#x421;&#x43B;&#x43E;&#x439;_2"><g id="&#x421;&#x43B;&#x43E;&#x439;_1-2"><path class="cls-1" d="M11.29 6a3 3 0 113-3 3 3 0 01-3 3zm0-4a1 1 0 101 1 1 1 0 00-1-1z"/><path class="cls-1" d="M20.91 23H1.74L0 19.47 3.67 4.68h15l3.91 14.74zM3 21h16.64l.82-1.77-3.32-12.55H5.23L2.12 19.24z"/><path class="cls-1" d="M8.5 17h-1v-1.11h1v-.64h-1v-1.36h1V10.3h2.75a3.8 3.8 0 011.23.18 2.31 2.31 0 01.9.5 1.78 1.78 0 01.54.78 2.53 2.53 0 01.19 1 2.63 2.63 0 01-.19 1 1.9 1.9 0 01-.54.78 2.43 2.43 0 01-.9.49 3.8 3.8 0 01-1.23.18h-1.1v.64h2.42V17h-2.42v1H8.5zm2.59-3.14a1.54 1.54 0 001-.29 1.06 1.06 0 00.33-.83 1 1 0 00-.31-.81 1.49 1.49 0 00-1.06-.3h-.94v2.23z"/></g></g></symbol><symbol id="user-check" viewBox="0 0 20 17"><g><path d="M11.3 8.72A4.94 4.94 0 0013 5 5 5 0 103 5a4.94 4.94 0 001.7 3.72A8 8 0 000 16a1 1 0 00.29.71A1 1 0 001 17a1 1 0 00.71-.29A1 1 0 002 16a6 6 0 0112 0 1 1 0 102 0 8 8 0 00-4.7-7.28zM8 8a3 3 0 01-1.67-.51 3 3 0 01-1.1-1.34 3 3 0 01.65-3.27 3 3 0 013.27-.65 3 3 0 011.34 1.1A3 3 0 0111 5a3 3 0 01-3 3zm11.71-2.37a1 1 0 00-.33-.22.94.94 0 00-.76 0 1 1 0 00-.33.22l-2 2-.62-.63a1 1 0 00-.33-.22.94.94 0 00-.76 0 1 1 0 00-.33.22 1 1 0 000 1.41l1.34 1.34a1 1 0 001.41 0l2.67-2.67a1.08 1.08 0 00.24-.32.93.93 0 00.09-.4.87.87 0 00-.07-.36 1 1 0 00-.22-.34z"/></g></symbol><symbol id="user" viewBox="0 0 24 20"><g id="&#x421;&#x43B;&#x43E;&#x439;_2"><g id="&#x421;&#x43B;&#x43E;&#x439;_1-2"><path class="cls-1" d="M16 20a1 1 0 01-1-1v-2a3 3 0 00-3-3H5a3 3 0 00-2.12.88A3 3 0 002 17v2a1 1 0 01-2 0v-2a5 5 0 015-5h7a5 5 0 015 5v2a1 1 0 01-1 1zM23 12a1 1 0 01-.71-.29l-5-5a1 1 0 011.42-1.42l5 5a1 1 0 010 1.42A1 1 0 0123 12z"/><path class="cls-1" d="M18 12a1 1 0 01-.71-.29 1 1 0 010-1.42l5-5a1 1 0 111.42 1.42l-5 5A1 1 0 0118 12zM8.5 10a5 5 0 115-5 5 5 0 01-5 5zm0-8a3 3 0 103 3 3 3 0 00-3-3z"/></g></g></symbol><symbol id="users" viewBox="0 0 21.97 17"><g><path d="M11.3 8.72A4.94 4.94 0 0013 5 5 5 0 103 5a4.94 4.94 0 001.7 3.72A8 8 0 000 16a1 1 0 00.29.71A1 1 0 001 17a1 1 0 00.71-.29A1 1 0 002 16a6 6 0 0112 0 1 1 0 102 0 8 8 0 00-4.7-7.28zM8 8a3 3 0 01-1.67-.51 3 3 0 01-1.1-1.34 3 3 0 01.65-3.27 3 3 0 013.27-.65 3 3 0 011.34 1.1A3 3 0 0111 5a3 3 0 01-3 3zm9.74.32A5 5 0 0018.56 3 4.93 4.93 0 0016.72.8 5.05 5.05 0 0014 0a1 1 0 00-.71.29A1 1 0 0013 1a1 1 0 00.29.71A1 1 0 0014 2a3 3 0 013 3 3 3 0 01-.4 1.5 3.1 3.1 0 01-1.1 1.09 1.1 1.1 0 00-.36.35 1 1 0 00-.14.49 1 1 0 00.11.49 1 1 0 00.34.37l.39.26.13.07A7 7 0 0120 16a1 1 0 102 0 9 9 0 00-4.23-7.68z"/></g></symbol></svg>