<svg width="24" height="24" viewBox="0 0 24 24" fill="none" xmlns="http://www.w3.org/2000/svg">
<path d="M6 0C5.175 0 4.5 0.675 4.5 1.5V22.5C4.5 23.325 5.175 24 6 24H21C21.825 24 22.5 23.325 22.5 22.5V6L16.5 0H6Z" fill="#E2E5E7"/>
<path d="M18 6H22.5L16.5 0V4.5C16.5 5.325 17.175 6 18 6Z" fill="#B0B7BD"/>
<path d="M22.5 10.5L18 6H22.5V10.5Z" fill="#CAD1D8"/>
<path d="M19.5 19.5C19.5 19.9125 19.1625 20.25 18.75 20.25H2.25C1.8375 20.25 1.5 19.9125 1.5 19.5V12C1.5 11.5875 1.8375 11.25 2.25 11.25H18.75C19.1625 11.25 19.5 11.5875 19.5 12V19.5Z" fill="#F15642"/>
<path d="M4.76929 14.2103C4.76929 14.0123 4.92529 13.7963 5.17654 13.7963H6.56179C7.34179 13.7963 8.04379 14.3183 8.04379 15.3188C8.04379 16.2668 7.34179 16.7948 6.56179 16.7948H5.56054V17.5868C5.56054 17.8508 5.39254 18 5.17654 18C4.97854 18 4.76929 17.8508 4.76929 17.5868V14.2103ZM5.56054 14.5515V16.0455H6.56179C6.96379 16.0455 7.28179 15.6908 7.28179 15.3188C7.28179 14.8995 6.96379 14.5515 6.56179 14.5515H5.56054Z" fill="white"/>
<path d="M9.21832 18C9.02032 18 8.80432 17.892 8.80432 17.6288V14.2223C8.80432 14.007 9.02032 13.8503 9.21832 13.8503H10.5916C13.3321 13.8503 13.2721 18 10.6456 18H9.21832ZM9.59632 14.5823V17.2688H10.5916C12.2108 17.2688 12.2828 14.5823 10.5916 14.5823H9.59632Z" fill="white"/>
<path d="M14.2441 14.6302V15.5835H15.7733C15.9893 15.5835 16.2053 15.7995 16.2053 16.0087C16.2053 16.2067 15.9893 16.3687 15.7733 16.3687H14.2441V17.628C14.2441 17.838 14.0948 17.9992 13.8848 17.9992C13.6208 17.9992 13.4596 17.838 13.4596 17.628V14.2215C13.4596 14.0062 13.6216 13.8495 13.8848 13.8495H15.9901C16.2541 13.8495 16.4101 14.0062 16.4101 14.2215C16.4101 14.4135 16.2541 14.6295 15.9901 14.6295H14.2441V14.6302Z" fill="white"/>
<path d="M18.75 20.25H4.5V21H18.75C19.1625 21 19.5 20.6625 19.5 20.25V19.5C19.5 19.9125 19.1625 20.25 18.75 20.25Z" fill="#CAD1D8"/>
</svg>
