<svg xmlns="http://www.w3.org/2000/svg" viewBox="0 0 187.5 190.63"><defs><style>.cls-1{fill:#219653;}.cls-2{fill:#efbe9a;}.cls-3{fill:#243242;}.cls-4{fill:#4d5d7a;}.cls-5{fill:#27ae60;}.cls-6{fill:#f5b953;}.cls-7{fill:#8892a0;}</style></defs><title>police</title><g id="Слой_2" data-name="Слой 2"><g id="Слой_1-2" data-name="Слой 1"><path class="cls-1" d="M187.5,190.63V171.88L130.91,159a15.64,15.64,0,0,1-12.16-15.24V125h-50v18.78A15.64,15.64,0,0,1,56.59,159L0,171.88v18.75"/><path class="cls-2" d="M118.75,118.75v25l-25,18.72-25-18.72v-25"/><path class="cls-2" d="M43.75,62.5v9.38L50,100h6.25l.5,3.48A35.42,35.42,0,0,0,76,130.18a39.65,39.65,0,0,0,35.52,0,35.42,35.42,0,0,0,19.24-26.7l.5-3.48h6.25l6.25-28.12V62.5"/><path class="cls-3" d="M56.25,68.75a21,21,0,0,0,17.52,9.38h40a21,21,0,0,0,17.52-9.38V59.38h-75Z"/><path class="cls-1" d="M143.75,50l.4-.27A40.63,40.63,0,0,0,158,34.1l1.43-2.85-.61-.72A71.84,71.84,0,0,0,121,6.81L93.75,0,66.51,6.81A71.84,71.84,0,0,0,28.73,30.53l-.6.72,1.42,2.85a40.63,40.63,0,0,0,13.8,15.63l.4.27"/><path class="cls-4" d="M43.75,71.88,69,67.67a149.87,149.87,0,0,1,24.67-2h.17a149.84,149.84,0,0,1,24.66,2l25.25,4.21V50L118.5,45.79a149.87,149.87,0,0,0-24.67-2h-.17a149.84,149.84,0,0,0-24.66,2L43.75,50Z"/><path class="cls-5" d="M68.75,143.78l25,18.72L71.88,181.25,56.59,159"/><path class="cls-6" d="M46.88,169.53v-8.31L0,171.88v9.37l41.45-5.53A6.24,6.24,0,0,0,46.88,169.53Z"/><path class="cls-5" d="M118.75,143.78l-25,18.72,21.88,18.75L130.91,159"/><path class="cls-6" d="M140.63,169.53a6.24,6.24,0,0,0,5.42,6.19l41.45,5.53v-9.37l-46.87-10.66Z"/><path class="cls-4" d="M80.29,174l10.34,10.34h6.25L107.21,174,93.75,162.5Z"/><path class="cls-6" d="M94.42,37.33l-.67.17-.67-.17A15.63,15.63,0,0,1,81.25,22.17V12.5h25v9.67A15.63,15.63,0,0,1,94.42,37.33Z"/><path class="cls-7" d="M150,176.25l6.25.83V164.77L150,163.35Z"/><path class="cls-7" d="M162.5,177.92l6.25.83V167.61l-6.25-1.42Z"/><path class="cls-7" d="M18.75,178.75l6.25-.83V166.19l-6.25,1.42Z"/><path class="cls-7" d="M31.25,177.08l6.25-.83v-12.9l-6.25,1.42Z"/></g></g></svg>