<svg width="27" height="27" viewBox="0 0 27 27" fill="none" xmlns="http://www.w3.org/2000/svg">
<rect x="0.0869141" width="26.087" height="26.087" rx="13.0435" fill="url(#paint0_linear)"/>
<path d="M10.4137 13.0435C10.4137 11.5428 11.63 10.3259 13.1307 10.3259C14.6314 10.3259 15.8483 11.5428 15.8483 13.0435C15.8483 14.5442 14.6314 15.7611 13.1307 15.7611C11.63 15.7611 10.4137 14.5442 10.4137 13.0435ZM8.94465 13.0435C8.94465 15.3555 10.8187 17.2296 13.1307 17.2296C15.4426 17.2296 17.3167 15.3555 17.3167 13.0435C17.3167 10.7316 15.4426 8.85749 13.1307 8.85749C10.8187 8.85749 8.94465 10.7316 8.94465 13.0435ZM16.5042 8.69151C16.5041 8.88499 16.5614 9.07415 16.6688 9.23507C16.7763 9.39599 16.929 9.52143 17.1077 9.59555C17.2864 9.66966 17.4831 9.68911 17.6729 9.65144C17.8627 9.61377 18.037 9.52067 18.1739 9.38391C18.3108 9.24715 18.404 9.07288 18.4418 8.88313C18.4797 8.69338 18.4604 8.49668 18.3864 8.3179C18.3124 8.13911 18.1871 7.98628 18.0263 7.87872C17.8654 7.77117 17.6763 7.71372 17.4828 7.71364H17.4824C17.2231 7.71376 16.9744 7.81681 16.791 8.00016C16.6076 8.18351 16.5044 8.43216 16.5042 8.69151ZM9.83721 19.6792C9.04241 19.643 8.61041 19.5106 8.32332 19.3988C7.94271 19.2506 7.67115 19.0741 7.38562 18.789C7.1001 18.5039 6.92336 18.2326 6.77584 17.8519C6.66393 17.565 6.53154 17.1329 6.49541 16.3381C6.45589 15.4787 6.44799 15.2206 6.44799 13.0436C6.44799 10.8666 6.45654 10.6092 6.49541 9.74914C6.5316 8.95434 6.66497 8.52305 6.77584 8.23525C6.92402 7.85464 7.10049 7.58307 7.38562 7.29755C7.67075 7.01203 7.94206 6.83529 8.32332 6.68777C8.61028 6.57586 9.04241 6.44347 9.83721 6.40734C10.6965 6.36781 10.9546 6.35992 13.1307 6.35992C15.3067 6.35992 15.5651 6.36847 16.4251 6.40734C17.2199 6.44353 17.6512 6.5769 17.939 6.68777C18.3196 6.83529 18.5912 7.01242 18.8767 7.29755C19.1623 7.58268 19.3383 7.85464 19.4865 8.23525C19.5984 8.52221 19.7308 8.95434 19.7669 9.74914C19.8065 10.6092 19.8144 10.8666 19.8144 13.0436C19.8144 15.2206 19.8065 15.478 19.7669 16.3381C19.7308 17.1329 19.5977 17.5649 19.4865 17.8519C19.3383 18.2326 19.1619 18.5041 18.8767 18.789C18.5916 19.0739 18.3196 19.2506 17.939 19.3988C17.6521 19.5107 17.2199 19.6431 16.4251 19.6792C15.5658 19.7187 15.3077 19.7266 13.1307 19.7266C10.9537 19.7266 10.6963 19.7187 9.83721 19.6792ZM9.76971 4.94073C8.90186 4.98025 8.30884 5.11786 7.79095 5.31938C7.2546 5.52749 6.80056 5.80668 6.34684 6.25968C5.89312 6.71268 5.61465 7.16744 5.40654 7.70379C5.20502 8.22201 5.06741 8.81471 5.02789 9.68255C4.98771 10.5518 4.97852 10.8297 4.97852 13.0435C4.97852 15.2574 4.98771 15.5353 5.02789 16.4045C5.06741 17.2724 5.20502 17.8651 5.40654 18.3833C5.61465 18.9193 5.89319 19.3746 6.34684 19.8274C6.80049 20.2802 7.2546 20.559 7.79095 20.7677C8.30982 20.9692 8.90186 21.1068 9.76971 21.1463C10.6394 21.1859 10.9168 21.1957 13.1307 21.1957C15.3446 21.1957 15.6224 21.1865 16.4917 21.1463C17.3596 21.1068 17.9522 20.9692 18.4704 20.7677C19.0064 20.559 19.4608 20.2804 19.9145 19.8274C20.3683 19.3744 20.6461 18.9193 20.8548 18.3833C21.0564 17.8651 21.1946 17.2724 21.2335 16.4045C21.273 15.5346 21.2822 15.2574 21.2822 13.0435C21.2822 10.8297 21.273 10.5518 21.2335 9.68255C21.194 8.81464 21.0564 8.22168 20.8548 7.70379C20.6461 7.16777 20.3675 6.7134 19.9145 6.25968C19.4615 5.80597 19.0064 5.52749 18.4711 5.31938C17.9522 5.11786 17.3595 4.9796 16.4923 4.94073C15.6231 4.90121 15.3452 4.89136 13.1313 4.89136C10.9175 4.89136 10.6394 4.90055 9.76971 4.94073Z" fill="white"/>
<defs>
<linearGradient id="paint0_linear" x1="5.63039" y1="23.1522" x2="22.913" y2="5.21739" gradientUnits="userSpaceOnUse">
<stop stop-color="#EEA054"/>
<stop offset="0.502762" stop-color="#D64763"/>
<stop offset="1" stop-color="#B62A99"/>
</linearGradient>
</defs>
</svg>
