<svg width="27" height="27" viewBox="0 0 27 27" fill="none" xmlns="http://www.w3.org/2000/svg">
<rect width="26.087" height="26.087" rx="13.0435" fill="#5181B8"/>
<path fill-rule="evenodd" clip-rule="evenodd" d="M21.3401 8.98621C21.461 8.58313 21.3401 8.28687 20.7647 8.28687H18.862C18.3782 8.28687 18.1553 8.54277 18.0344 8.82503C18.0344 8.82503 17.0668 11.1833 15.6961 12.7152C15.2526 13.1587 15.0511 13.2996 14.8092 13.2996C14.6882 13.2996 14.5132 13.1587 14.5132 12.7556V8.98621C14.5132 8.50241 14.3728 8.28687 13.9696 8.28687H10.9798C10.6775 8.28687 10.4957 8.51137 10.4957 8.7242C10.4957 9.18286 11.1809 9.28859 11.2516 10.5786V13.3804C11.2516 13.9947 11.1407 14.1062 10.8988 14.1062C10.2538 14.1062 8.68493 11.7371 7.75428 9.02658C7.5719 8.49969 7.38898 8.28687 6.90272 8.28687H5.0001C4.4565 8.28687 4.34778 8.54277 4.34778 8.82503C4.34778 9.32896 4.9929 11.8285 7.3512 15.1341C8.92357 17.3914 11.1385 18.6154 13.1542 18.6154C14.3637 18.6154 14.5132 18.3436 14.5132 17.8754V16.1691C14.5132 15.6255 14.6278 15.5171 15.0106 15.5171C15.293 15.5171 15.7767 15.6582 16.9056 16.7466C18.1956 18.0364 18.4081 18.6154 19.1338 18.6154H21.0365C21.5801 18.6154 21.8519 18.3436 21.695 17.8072C21.5235 17.2725 20.9076 16.4971 20.0903 15.5776C19.6469 15.0534 18.9816 14.489 18.7802 14.2069C18.498 13.844 18.5785 13.6828 18.7802 13.3605C18.7802 13.3605 21.0982 10.095 21.3401 8.98635V8.98621Z" fill="white"/>
</svg>
