<svg width="27" height="26" viewBox="0 0 27 26" fill="none" xmlns="http://www.w3.org/2000/svg">
<circle cx="13.0869" cy="13" r="13" fill="#F40000"/>
<path d="M20 11.8384C20 11.5353 19.9489 11.1818 19.9489 10.7778C19.8978 10.3737 19.8467 9.9697 19.7956 9.61616C19.6934 9.21212 19.5401 8.90909 19.2336 8.65657C18.9781 8.40404 18.6204 8.25252 18.2628 8.20202C17.0876 8.0505 15.3504 8 13 8C10.6496 8 8.86131 8.0505 7.73722 8.20202C7.37956 8.25252 7.0219 8.40404 6.76642 8.65657C6.51095 8.90909 6.30657 9.21212 6.20438 9.61616C6.10219 9.9697 6.0511 10.3232 6.0511 10.7778C6 11.1818 6 11.5353 6 11.8384C6 12.1414 6 12.4949 6 13C6 13.505 6 13.9091 6 14.1616C6 14.4646 6.0511 14.8182 6.0511 15.2222C6.10219 15.6263 6.15328 16.0303 6.20438 16.3838C6.30657 16.7879 6.45985 17.0909 6.76642 17.3434C7.0219 17.596 7.37956 17.7475 7.73722 17.798C8.91241 17.9495 10.6496 18 13 18C15.3504 18 17.1387 17.9495 18.2628 17.798C18.6204 17.7475 18.9781 17.596 19.2336 17.3434C19.4891 17.0909 19.6934 16.7879 19.7956 16.3838C19.8978 16.0303 19.9489 15.6768 19.9489 15.2222C20 14.8182 20 14.4646 20 14.1616C20 13.8586 20 13.505 20 13C20 12.4949 20 12.0909 20 11.8384ZM15.708 13.404L11.6715 15.8788C11.6204 15.9293 11.5183 15.9798 11.4161 15.9798C11.3139 15.9798 11.2628 15.9798 11.1606 15.9293C11.0073 15.8283 10.9051 15.6768 10.9051 15.4747V10.4747C10.9051 10.2727 11.0073 10.1212 11.1606 10.0202C11.3139 9.91919 11.5183 9.91919 11.6715 10.0202L15.708 12.4949C15.8613 12.596 15.9635 12.7475 15.9635 12.899C15.9635 13.0505 15.8613 13.303 15.708 13.404Z" fill="white"/>
</svg>
